<svg width="81" height="30" viewBox="0 0 81 30" fill="none" xmlns="http://www.w3.org/2000/svg">
<path d="M15.5 30C23.7843 30 30.5 23.2843 30.5 15C30.5 6.71573 23.7843 0 15.5 0C7.21573 0 0.5 6.71573 0.5 15C0.5 23.2843 7.21573 30 15.5 30Z" fill="url(#paint0_linear_0_1400)"/>
<path d="M7.28977 14.8415C11.6626 12.9364 14.5785 11.6804 16.0374 11.0735C20.2031 9.3409 21.0687 9.03993 21.6329 9.02988C21.7569 9.0278 22.0344 9.05855 22.2141 9.20438C22.3659 9.32752 22.4076 9.49386 22.4276 9.6106C22.4476 9.72735 22.4725 9.9933 22.4527 10.2011C22.2269 12.573 21.2502 18.3288 20.7532 20.9853C20.543 22.1094 20.129 22.4863 19.7281 22.5232C18.8571 22.6033 18.1956 21.9475 17.3519 21.3945C16.0317 20.5291 15.2859 19.9904 14.0044 19.1459C12.5235 18.1699 13.4835 17.6336 14.3275 16.7569C14.5484 16.5275 18.3864 13.0366 18.4607 12.7199C18.4699 12.6803 18.4786 12.5327 18.3909 12.4547C18.3032 12.3767 18.1737 12.4034 18.0803 12.4246C17.9479 12.4546 15.8389 13.8486 11.7532 16.6066C11.1546 17.0176 10.6123 17.2179 10.1265 17.2074C9.59094 17.1959 8.5607 16.9046 7.79483 16.6557C6.85545 16.3503 6.10886 16.1889 6.17387 15.6703C6.20773 15.4002 6.5797 15.1239 7.28977 14.8415Z" fill="#F9F9F9"/>
<path d="M79.8379 7.97756C79.6659 7.34163 79.3302 6.76187 78.8643 6.29603C78.3985 5.83018 77.8187 5.4945 77.1828 5.32242C74.8548 4.6875 65.4848 4.6875 65.4848 4.6875C65.4848 4.6875 56.1149 4.70674 53.7868 5.34166C53.1509 5.51374 52.5711 5.84942 52.1053 6.31527C51.6395 6.78111 51.3038 7.36087 51.1317 7.9968C50.4275 12.1334 50.1543 18.4365 51.1509 22.4076C51.323 23.0436 51.6587 23.6233 52.1245 24.0892C52.5904 24.555 53.1701 24.8907 53.8061 25.0628C56.1341 25.6977 65.5041 25.6977 65.5041 25.6977C65.5041 25.6977 74.874 25.6977 77.2021 25.0628C77.838 24.8907 78.4177 24.555 78.8836 24.0892C79.3494 23.6233 79.6851 23.0436 79.8572 22.4076C80.5999 18.2652 80.8288 11.966 79.8379 7.97756Z" fill="#FF0000"/>
<path d="M62.5029 19.6948L70.2759 15.1926L62.5029 10.6904V19.6948Z" fill="#F9F9F9"/>
<defs>
<linearGradient id="paint0_linear_0_1400" x1="15.5" y1="0" x2="15.5" y2="29.7774" gradientUnits="userSpaceOnUse">
<stop stop-color="#2AABEE"/>
<stop offset="1" stop-color="#229ED9"/>
</linearGradient>
</defs>
</svg>
