<svg width="53" height="55" viewBox="0 0 53 55" fill="none" xmlns="http://www.w3.org/2000/svg">
<path d="M52.743 39.4658C52.5186 38.6281 51.9813 37.9279 51.2302 37.4943C50.801 37.2463 50.3312 37.1026 49.851 37.0667L45.4365 20.5914C45.2829 20.0184 44.6936 19.678 44.1209 19.8318L41.0078 20.6659L37.4303 7.31468C37.2767 6.74168 36.6875 6.40146 36.1147 6.55508L16.9011 11.7033L14.8559 4.07046C14.4357 2.50185 13.5915 1.31374 12.4148 0.634387C11.2381 -0.0449652 9.78686 -0.182039 8.21846 0.238313L2.55225 1.75665C0.823151 2.21997 -0.206834 4.00386 0.256488 5.73318C0.480897 6.57087 1.01823 7.27106 1.76935 7.70474C2.52035 8.1383 3.39564 8.25346 4.23312 8.02905L8.86161 6.78894L12.1954 19.2309C12.349 19.8041 12.9382 20.1444 13.511 19.9905C14.0842 19.837 14.4243 19.2479 14.2706 18.6748L10.6588 5.19509C10.5052 4.62209 9.91598 4.28187 9.3432 4.43549L3.6771 5.95372C3.39307 6.02967 3.09754 5.99067 2.84348 5.84404C2.58942 5.6973 2.40766 5.46053 2.33171 5.17715C2.17498 4.59212 2.52336 3.98861 3.10828 3.83187L8.77438 2.31364C9.78063 2.04412 10.6678 2.10685 11.3405 2.49508C12.013 2.88332 12.511 3.62046 12.7806 4.6266L22.2228 39.8658C21.8629 39.9082 21.5016 39.977 21.1414 40.0735C20.7812 40.17 20.434 40.2911 20.101 40.4344L16.7734 28.0156C16.6198 27.4426 16.0306 27.1023 15.4578 27.256C14.8847 27.4095 14.5446 27.9986 14.6982 28.5716L18.1942 41.6189C16.0308 43.4609 14.9902 46.4497 15.7731 49.372C16.6809 52.7601 19.7562 55 23.1081 54.9999C23.7567 54.9999 24.4159 54.916 25.0713 54.7403C27.0301 54.2154 28.6673 52.9592 29.6813 51.2029C30.1244 50.4354 30.4253 49.6125 30.5799 48.7658L50.447 43.4425C51.2848 43.2181 51.9849 42.6807 52.4186 41.9296C52.8523 41.1785 52.9675 40.3035 52.743 39.4658ZM47.7288 37.448L28.8944 42.4947C27.7593 41.1614 26.1886 40.2547 24.4666 39.9382L21.3127 28.1676L28.2275 26.3147L30.3584 34.2672C30.4603 34.6472 30.7617 34.9412 31.144 35.0335C31.5216 35.1256 31.9287 35.0028 32.1927 34.7098L34.3819 32.2897L37.488 33.291C37.8626 33.4118 38.273 33.318 38.5579 33.047C38.843 32.7759 38.9571 32.3706 38.8553 31.9906L36.7244 24.0382L43.6392 22.1853L47.7288 37.448ZM34.6491 24.5941L36.2692 30.6407L34.3805 30.0318C33.9788 29.9022 33.5376 30.0202 33.2543 30.3336L31.9229 31.8053L30.3028 25.7587L34.6491 24.5941ZM29.3826 15.425L28.1345 15.0226C27.7329 14.893 27.2917 15.011 27.0083 15.3244L26.1287 16.2968L24.9182 11.7793L28.1722 10.9075L29.3826 15.425ZM22.8429 12.3356L24.5639 18.7589C24.6657 19.1389 24.9672 19.4328 25.3495 19.5252C25.7271 19.6172 26.1343 19.4945 26.3982 19.2015L28.1358 17.2805L30.6012 18.0753C30.9758 18.1961 31.3861 18.1023 31.6711 17.8313C31.9562 17.5602 32.0703 17.1549 31.9685 16.7749L30.2474 10.3516L35.6331 8.90854L38.9326 21.2222L20.7567 26.0924L17.4573 13.7786L22.8429 12.3356ZM27.8207 50.1287C27.0937 51.3879 25.92 52.2887 24.5154 52.665C21.6168 53.4417 18.6253 51.7152 17.8484 48.8158C17.0717 45.9166 18.7984 42.9256 21.6975 42.1489C24.5969 41.372 27.5876 43.0987 28.3645 45.9981C28.7408 47.4025 28.5477 48.8694 27.8207 50.1287ZM50.558 40.8553C50.4113 41.1093 50.1745 41.2911 49.8911 41.367L30.6484 46.5232C30.6052 46.1614 30.5358 45.8002 30.4398 45.442C30.3433 45.0818 30.2223 44.7346 30.079 44.4016L49.3226 39.2453C49.606 39.1693 49.9019 39.2082 50.156 39.355C50.41 39.5017 50.5918 39.7385 50.6678 40.022C50.7437 40.3052 50.7047 40.6013 50.558 40.8553Z" fill="#8436E8"/>
<path d="M22.2724 44.2937C20.5558 44.7538 19.5336 46.5245 19.9936 48.2408C20.3789 49.679 21.6843 50.6298 23.1073 50.6298C23.3825 50.6298 23.6623 50.5942 23.9406 50.5197C24.772 50.2969 25.4671 49.7637 25.8975 49.0181C26.3279 48.2726 26.4422 47.4042 26.2194 46.5727C25.7595 44.8562 23.9895 43.8338 22.2724 44.2937ZM24.0368 47.9439C23.8934 48.1924 23.6617 48.3702 23.3847 48.4444C22.8126 48.5978 22.2222 48.2569 22.0689 47.6847C21.9156 47.1126 22.2563 46.5225 22.8284 46.3691C23.4003 46.2156 23.9909 46.5565 24.1441 47.1288C24.2185 47.4058 24.1803 47.6953 24.0368 47.9439Z" fill="#8436E8"/>
<path d="M15.5594 23.623C15.5594 23.0297 15.0783 22.5488 14.4852 22.5488C13.892 22.5488 13.4106 23.0297 13.4106 23.623C13.4106 24.2163 13.8919 24.6972 14.4852 24.6972C15.0785 24.6972 15.5594 24.2163 15.5594 23.623Z" fill="#8436E8"/>
</svg>
